<svg width="49" height="70" viewBox="0 0 49 70" fill="none" xmlns="http://www.w3.org/2000/svg">
<path d="M24.7166 31.5667C24.3833 31.5333 23.9833 31.5333 23.6166 31.5667C15.6833 31.3 9.3833 24.8 9.3833 16.8C9.3833 8.63333 15.9833 2 24.1833 2C32.35 2 38.9833 8.63333 38.9833 16.8C38.95 24.8 32.65 31.3 24.7166 31.5667Z" stroke="#292D32" stroke-width="3" stroke-linecap="round" stroke-linejoin="round"/>
<path d="M8.05 43.8665C-0.0166667 49.2665 -0.0166667 58.0665 8.05 63.4332C17.2167 69.5665 32.25 69.5665 41.4167 63.4332C49.4833 58.0332 49.4833 49.2332 41.4167 43.8665C32.2833 37.7665 17.25 37.7665 8.05 43.8665Z" stroke="#292D32" stroke-width="3" stroke-linecap="round" stroke-linejoin="round"/>
</svg>
